<?xml version="1.0" encoding="utf-8"?>
<!-- Generator: Adobe Illustrator 26.0.2, SVG Export Plug-In . SVG Version: 6.00 Build 0)  -->
<svg version="1.1" id="圖層_1" xmlns="http://www.w3.org/2000/svg" xmlns:xlink="http://www.w3.org/1999/xlink" x="0px" y="0px"
	 viewBox="0 0 1260.8 479.8" style="enable-background:new 0 0 1260.8 479.8;" xml:space="preserve">
<style type="text/css">
	.st0{fill:#333333;}
</style>
<g>
	<path class="st0" d="M75.3,184.4V178H67v8.2h6.4C74.7,186.2,75.3,185.6,75.3,184.4z"/>
	<path class="st0" d="M75.3,167.1c0-1.3-0.6-1.9-1.9-1.9H67v8h8.3V167.1z"/>
	<path class="st0" d="M315.1,174.2h-19.6v14.3H317v-12.4C317,174.9,316.4,174.2,315.1,174.2z"/>
	<path class="st0" d="M62.3,165.2h-6.4c-1.2,0-1.9,0.6-1.9,1.9v6.2h8.3V165.2z"/>
	<rect x="91" y="184.9" class="st0" width="11" height="9.5"/>
	<path class="st0" d="M62.3,178H54v6.2c0,1.3,0.6,1.9,1.9,1.9h6.3V178z"/>
	<path class="st0" d="M295.4,210.1h19.6c1.3,0,1.9-0.6,1.9-1.9v-13.6h-21.6L295.4,210.1L295.4,210.1z"/>
	<path class="st0" d="M411.6,175.5c0-1.3-0.6-1.9-1.9-1.9h-11.8v5.8h13.7V175.5z"/>
	<rect x="379.2" y="183.9" class="st0" width="13.5" height="5.8"/>
	<path class="st0" d="M268.1,176.1v12.4h20.8v-14.3H270C268.7,174.2,268.1,174.9,268.1,176.1z"/>
	<rect x="397.9" y="183.9" class="st0" width="13.7" height="5.8"/>
	<path class="st0" d="M379.2,175.5v3.9h13.5v-5.8H381C379.8,173.5,379.2,174.2,379.2,175.5z"/>
	<path class="st0" d="M366.3,210.8h58c1.2,0,1.8-0.6,1.8-1.9v-59.7c0-1.3-0.6-1.9-1.8-1.9h-58c-1.2,0-1.9,0.6-1.9,1.9V209
		C364.5,210.2,365.1,210.8,366.3,210.8z M372.3,158.3h19.9v-4.9c0-2.1,1-3.1,3.1-3.1c2.1,0,3.1,1,3.1,3.1v4.9h14.5
		c-3-1.9-5.5-3.4-7.5-4.4c-1.3-0.7-1.4-1.6-0.3-2.7c0.7-0.7,1.5-0.8,2.4-0.4c1.4,0.7,3.6,1.9,6.8,3.7c0.6,0.4,1,1,0.9,1.8
		c0,0.8-0.3,1.4-0.9,2h4.8c1.6,0,2.5,0.8,2.5,2.5s-0.8,2.5-2.5,2.5h-20.7v5.6H412c1.6,0,2.9,0.5,3.8,1.5s1.5,2.2,1.5,3.8v27
		c0,1.4-0.2,2.4-0.5,3.1c-0.4,0.6-1,1.2-2,1.6c-1.3,0.5-3.6,0.8-7,0.8c-1.8,0-2.9-0.6-3.4-1.7c-0.4-0.8-0.2-1.5,0.4-1.9
		s1.4-0.7,2.5-0.6h3.1c0.8-0.1,1.2-0.5,1.2-1.2v-7h-13.7v9.4c0,1.8-0.9,2.6-2.6,2.6s-2.6-0.9-2.6-2.6v-9.4h-13.5v9.8
		c0,1.8-0.9,2.6-2.7,2.6c-1.9,0-2.8-0.9-2.8-2.6v-29.8c0-1.6,0.5-2.9,1.5-3.8s2.2-1.5,3.8-1.5h13.3v-5.6h-19.9
		c-1.6,0-2.5-0.8-2.5-2.5C369.8,159.1,370.6,158.3,372.3,158.3z"/>
	<path class="st0" d="M268.1,208.3c0,1.2,0.6,1.9,1.9,1.9h18.9v-15.4h-20.8V208.3z"/>
	<path class="st0" d="M91,172.2v7.1h11v-9h-9.1C91.6,170.4,91,171,91,172.2z"/>
	<path class="st0" d="M119.3,172.2c0-1.2-0.6-1.9-1.9-1.9h-9.2v9h11.2V172.2z"/>
	<path class="st0" d="M134.9,247.1c-4.5,0-8.1,1.8-10.7,5.4c-2.7,3.6-4,8.5-4,14.7c0,6.2,1.3,11.1,4,14.8c2.7,3.7,6.3,5.5,10.7,5.5
		c4.4,0,8-1.9,10.7-5.5c2.7-3.7,4-8.6,4-14.8c0-6.2-1.3-11.1-4-14.7C142.9,248.9,139.3,247.1,134.9,247.1z"/>
	<path class="st0" d="M194.7,256.5c0-3.2-1-5.4-3-6.8c-2-1.4-5-2-9-2h-8.3v18.4h8.3C190.7,266.1,194.7,262.9,194.7,256.5z"/>
	<path class="st0" d="M424.5,249.8c-2.1-1.4-5.4-2.1-10-2.1h-7.1v19.8h7.3c4.4,0,7.6-0.8,9.8-2.5c2.1-1.6,3.1-4.2,3.1-7.8
		C427.7,253.7,426.6,251.2,424.5,249.8z"/>
	<path class="st0" d="M239.9,0C107.4,0,0,107.4,0,239.9s107.4,239.9,239.9,239.9s239.9-107.4,239.9-239.9S372.4,0,239.9,0z
		 M256.1,148.2h17.5v-7c0-2.2,1.1-3.3,3.3-3.3s3.3,1.1,3.3,3.3v7h24.2v-7c0-2.2,1.1-3.3,3.3-3.3s3.3,1.1,3.3,3.3v7h17.7
		c2,0,3.1,1.1,3.1,3.2c0,2.1-1,3.1-3.1,3.1H311v6.9c0,2.2-1.1,3.3-3.3,3.3s-3.3-1.1-3.3-3.3v-6.9h-24.2v6.9c0,2.2-1.1,3.3-3.3,3.3
		s-3.3-1.1-3.3-3.3v-6.9h-17.5c-2.1,0-3.1-1-3.1-3.1C253.1,149.2,254.1,148.2,256.1,148.2z M281.1,276.2c-0.4-0.9-1-1.7-1.9-2.4
		c-0.9-0.7-1.7-1.2-2.4-1.6c-0.7-0.4-1.8-0.9-3.4-1.6c-2.4-1-4.8-2-7.1-3.1c-6.7-2.9-10.1-7.1-10.1-12.7c0-3.8,1.5-7,4.5-9.5
		c3-2.5,6.7-3.7,11.2-3.7c4.8,0,9,1.5,12.9,4.6c1.1,1.1,1.1,2.2,0.1,3.4c-1.2,1.4-2.5,1.5-3.8,0.4c-2.8-2-5.8-3-9.2-3
		c-2.8,0-5.1,0.7-6.8,2c-1.7,1.3-2.5,3.1-2.5,5.4c0,0.9,0.2,1.8,0.5,2.6c0.4,0.8,0.8,1.4,1.2,1.9c0.4,0.5,1.1,1,2,1.5
		c0.9,0.5,1.6,0.9,2.1,1.2c0.5,0.2,1.3,0.6,2.4,1.1l7.1,3c3.3,1.5,5.8,3.2,7.6,5.1c1.7,2,2.6,4.7,2.6,8.1c0,4-1.5,7.4-4.6,10
		c-3.1,2.7-7.2,4-12.2,4c-5.9,0-11-1.9-15.4-5.5c-1.3-1.2-1.3-2.5-0.2-3.8c1.2-1.5,2.6-1.5,4.2-0.1c3.5,2.7,7.3,4,11.4,4
		c3.2,0,5.8-0.7,7.6-2.2c1.9-1.5,2.8-3.5,2.8-5.9C281.6,278.2,281.5,277.1,281.1,276.2z M266.9,216.4c-1.6,0-2.9-0.5-3.8-1.5
		s-1.4-2.2-1.4-3.8v-37.8c0-1.6,0.5-2.9,1.4-3.8s2.2-1.4,3.8-1.4h51.5c1.6,0,2.9,0.5,3.8,1.4s1.4,2.2,1.4,3.8v37.8
		c0,1.6-0.5,2.9-1.4,3.8s-2.2,1.5-3.8,1.5H266.9z M241.8,242.5h1.4c1,0,1.6,0.2,1.9,0.7s0,1.1-0.6,1.9l-13.4,16.3l16.2,27.9
		c0.5,0.9,0.6,1.6,0.3,2.1c-0.3,0.5-0.9,0.8-2,0.8h-2.2c-1,0-1.7-0.4-2.2-1.3l-14.1-24.5l-8.5,10.1V289c0,2.1-1,3.1-3.1,3.1
		c-2.2,0-3.2-1-3.2-3.1v-43.4c0-2.1,1.1-3.2,3.2-3.2c2.1,0,3.1,1.1,3.1,3.2v21.7h0.2l19.2-23.1C239.1,243.1,240.4,242.5,241.8,242.5
		z M113.6,139.1c1.1-0.9,2.1-1,3.2-0.3c3.3,2.3,5.9,4.4,7.9,6.3c1,1.1,0.9,2.1-0.4,3.3c-1.3,1.3-2.5,1.4-3.7,0.2
		c-1.6-1.8-3.9-3.7-7-5.9C112.1,141.6,112.1,140.4,113.6,139.1z M45.9,201.6c0-2,1-3,3-3h12.8v-7.3h-7.4c-1.6,0-2.9-0.5-3.8-1.4
		c-0.9-0.9-1.4-2.2-1.4-3.8v-20.7c0-1.6,0.5-2.9,1.4-3.8s2.2-1.4,3.8-1.4h7.4v-6.7H49.8c-1.9,0-2.9-1-2.9-3c0-1.9,1-2.8,2.9-2.8
		h11.8v-6.9c0-1.9,1-2.9,3-2.9c1.9,0,2.9,1,2.9,2.9v6.9h11c1.9,0,2.9,0.9,2.9,2.8c0,2-1,3-2.9,3h-11v6.7h7.7c1.6,0,2.9,0.5,3.8,1.4
		c0.9,0.9,1.4,2.2,1.4,3.8V186c0,1.6-0.5,2.9-1.4,3.8s-2.2,1.4-3.8,1.4h-7.7v7.3h12.1c2,0,3,1,3,3s-1,3-3,3H67.5v12.8
		c0,1.9-1,2.9-2.9,2.9c-2,0-3-1-3-2.9v-12.8H48.9C46.9,204.6,45.9,203.6,45.9,201.6z M105.9,245.9l-8.9,43c-0.2,1-0.7,1.8-1.4,2.4
		s-1.6,0.9-2.6,0.9h-2.5c-1.1,0-1.7-0.5-2.1-1.6l-7.1-28.4l-2.4-11.3h-0.3c-0.2,1-0.6,2.8-1.2,5.3s-1,4.5-1.3,6l-6.6,26.7
		c-0.5,2.2-1.9,3.2-4.1,3.2h-0.7c-1,0-1.9-0.3-2.7-0.9c-0.8-0.6-1.2-1.4-1.4-2.4l-9.1-42.7c-0.4-2.4,0.5-3.6,2.9-3.6
		c1.9,0,3.1,0.9,3.4,2.8l4.7,24.2c0.3,1.8,0.8,4.4,1.4,8s1.1,6.3,1.4,8.1h0.3l3.6-16.1l6.2-24.7c0.4-1.5,1.6-2.3,3.5-2.3
		c1.9,0,3,0.8,3.4,2.3l6.3,24.7c1.4,6.5,2.6,11.9,3.5,16.1h0.3c0.4-2,0.9-4.9,1.5-8.6c0.7-3.7,1.1-6.2,1.3-7.5l4.8-24.5
		c0.3-1.7,1.3-2.6,3.1-2.6C105.5,242.5,106.4,243.7,105.9,245.9z M112.6,217.6c-0.4-1.2-0.2-2.1,0.6-2.7c0.7-0.6,1.9-0.8,3.4-0.8
		c0.3,0,0.6,0,0.9,0c0.3,0,0.5,0,0.6,0c0.8,0,1.2-0.4,1.2-1.2v-12.5h-11.2v16.2c0,2-1,3-3,3c-2.1,0-3.1-1-3.1-3v-16.2H91v16.8
		c0,2-1,3-3,3s-3-1-3-3v-47.5c0-1.6,0.5-2.9,1.4-3.8s2.2-1.4,3.8-1.4H102v-8.3H86.3c-1.9,0-2.9-1-2.9-3c0-1.9,1-2.9,2.9-2.9H102
		v-9.4c0-2,1-3,3.1-3c2,0,3,1,3,3v9.4h16.5c1.9,0,2.9,1,2.9,2.9c0,2-1,3-2.9,3h-16.5v8.3h12.1c1.6,0,2.9,0.5,3.8,1.4
		c0.9,0.9,1.4,2.2,1.4,3.8V213c0,3.1-0.8,5.1-2.5,6.1c-1,0.5-2.9,0.9-5.8,1C114.5,220.2,113,219.4,112.6,217.6z M153.6,280.3
		c-1.6,3.9-4,6.9-7.2,9.2c-3.2,2.3-7.1,3.5-11.5,3.5c-6.3,0-11.4-2.3-15.3-7s-5.9-11-5.9-18.8c0-7.8,2-14.1,5.9-18.7
		c3.9-4.6,9-6.9,15.3-6.9c6.3,0,11.4,2.3,15.3,6.9s5.9,10.8,5.9,18.7C156,272.1,155.2,276.5,153.6,280.3z M152,217.7
		c-1.9-2.1-1-4,2.6-5.8c15.3-8.5,25.1-22.3,29.2-41.4h-29.5c-2.3,0-3.4-1.1-3.4-3.4s1.1-3.4,3.4-3.4h30.7c0.7-5.3,1.1-12.8,1.2-22.5
		c0-1.2,0.3-2,0.9-2.4s1.5-0.7,2.7-0.7c1.3,0,2.2,0.2,2.8,0.7s0.8,1.3,0.8,2.5c-0.2,9.8-0.7,17.2-1.4,22.5h33.5
		c2.2,0,3.4,1.1,3.4,3.4s-1.1,3.4-3.4,3.4h-30.4c6.4,19.9,16.6,33.6,30.7,41.1c3,1.4,3.6,3.3,1.7,5.7c-1.4,1.8-3.2,2.1-5.5,1
		c-14.4-8-25.1-22.4-32.2-42.9c-4.9,19.7-15.5,34-31.7,42.6C155.3,219.3,153.3,219.2,152,217.7z M174.3,271.1v17.9
		c0,2.1-1,3.1-3.1,3.1c-2.2,0-3.2-1-3.2-3.1v-42.5c0-1.2,0.4-2.1,1.1-2.9c0.7-0.7,1.7-1.1,2.9-1.1h11.6c11.5,0,17.3,4.6,17.3,13.9
		c0,3.7-1,6.8-3,9.1c-2,2.4-4.8,4-8.2,4.8l10.6,18.1c0.6,1.1,0.7,2,0.4,2.6c-0.4,0.7-1.2,1-2.5,1H198c-1.8,0-3.1-0.8-4-2.4
		l-10.7-18.6L174.3,271.1L174.3,271.1z M271.9,370.9c-7.9,7.9-16.6,13.3-23.8,15.3c0,0.2,0.1,0.4,0.1,0.5v13.8
		c0,4.5-3.7,8.2-8.2,8.2c-4.5,0-8.2-3.7-8.2-8.2v-13.8c0-0.2,0-0.4,0.1-0.5c-7.2-2-15.9-7.4-23.8-15.3c-14-14-20.1-30.6-13.7-37
		c6.4-6.4,23-0.3,37,13.7c3.4,3.4,6.3,6.9,8.7,10.4c2.4-3.5,5.3-7,8.7-10.4c14-14,30.6-20.1,37-13.7
		C292,340.3,285.9,356.9,271.9,370.9z M334.7,289.1c0,2.1-1,3.1-3.1,3.1c-2.1,0-3.1-1-3.1-3.1v-20.3h-23.1v20.3c0,2.1-1,3.1-3.1,3.1
		c-2.2,0-3.2-1-3.2-3.1v-43.4c0-2.1,1.1-3.2,3.2-3.2c2.1,0,3.1,1.1,3.1,3.2v17.6h23.1v-17.6c0-2.1,1-3.2,3.1-3.2
		c2.1,0,3.1,1.1,3.1,3.2L334.7,289.1L334.7,289.1z M386.8,280.3c-1.6,3.9-4,6.9-7.2,9.2s-7.1,3.5-11.5,3.5c-6.3,0-11.4-2.3-15.3-7
		c-3.9-4.7-5.9-11-5.9-18.8c0-7.8,2-14.1,5.9-18.7c3.9-4.6,9-6.9,15.3-6.9s11.4,2.3,15.3,6.9s5.9,10.8,5.9,18.7
		C389.1,272.1,388.4,276.5,386.8,280.3z M429,268.6c-3.3,2.6-7.7,3.9-13.4,3.9h-8.2v16.6c0,2.1-1,3.1-3.1,3.1c-2.2,0-3.2-1-3.2-3.1
		v-42.5c0-1.2,0.4-2.1,1.1-2.9c0.7-0.7,1.7-1.1,2.9-1.1h10.2c12.4,0,18.6,4.9,18.6,14.6C433.9,262.2,432.3,266,429,268.6z
		 M431.1,142.9c0.9,0.9,1.4,2.2,1.4,3.8v64.7c0,1.6-0.5,2.9-1.4,3.8s-2.2,1.5-3.8,1.5h-63.8c-1.6,0-2.9-0.5-3.8-1.5
		c-1-1-1.5-2.2-1.5-3.8v-64.7c0-1.6,0.5-2.9,1.5-3.8s2.2-1.4,3.8-1.4h63.8C428.9,141.5,430.2,142,431.1,142.9z"/>
	<path class="st0" d="M368,247.1c-4.5,0-8.1,1.8-10.7,5.4c-2.7,3.6-4,8.5-4,14.7c0,6.2,1.3,11.1,4,14.8c2.7,3.7,6.3,5.5,10.7,5.5
		c4.5,0,8-1.9,10.7-5.5c2.7-3.7,4-8.6,4-14.8c0-6.2-1.3-11.1-4-14.7C376,248.9,372.5,247.1,368,247.1z"/>
	<rect x="108.1" y="184.9" class="st0" width="11.2" height="9.5"/>
	<path class="st0" d="M749,150.5v-15.8h-86.3v15.8h15.8c-2.4,9.2-5.3,19-8.1,26.5h53.2c-1.1,9.7-2.7,14.8-5,16.6
		c-1.9,1.3-4,1.3-7.6,1.3c-5.2,0-17.8-0.2-29.2-1.1c3.7,4.7,6.5,11.5,6.9,16.5c11.1,0.6,21.9,0.6,27.8,0.2
		c7.6-0.2,12.4-1.5,16.6-5.6c4.7-4.5,6.9-14.8,8.5-36.3c0.3-2.4,0.7-7.1,0.7-7.1H693c1.1-3.5,2.1-7.1,3.1-10.8H749z"/>
	<path class="st0" d="M729.3,94.5h20.3V78.1h-40.3c1.9-4,3.5-8.1,4.8-12.4l-16.5-4.4c-1.9,6-4.3,11.5-7.3,16.8h-26.8v16.4h15.8
		c-6.1,7.6-13.2,13.9-21.3,19V65.5h-51.5v53.1H629v59.7l-7.3,1.9v-49.9h-14.5v53.4c-2.3,0.5-4.5,1-6.6,1.5l4.5,17.9
		c17.3-4.8,39.8-11.3,61-17.4l-2.6-16.5l-18.1,4.7v-21.5h13.4v-16.6h-13.4v-17.3h12.7v-0.8c2.6,4.7,5.7,11.3,6.6,14.5
		c6.3-4,11.9-8.9,17.4-14v7.9H724v-10.5c5.3,6.9,11,13.1,16.9,17.4c2.9-4.4,8.5-11.1,12.6-14.4C744.8,113.2,735.6,104,729.3,94.5z
		 M642.1,102.4h-19.8V81.6h19.8V102.4z M688.8,111c4.4-5.2,8.4-10.5,11.8-16.5h10.5c2.6,5.6,5.8,11.1,9.5,16.5H688.8z"/>
	<path class="st0" d="M831.5,134.5l-2.7,0.8h-50.3v15.8h42.4c-4.2,8.1-9.8,16.5-15.2,23.1c-3.7-3.4-7.6-6.6-11-9.4l-11.8,10.3
		c11.3,9.5,26.1,24.2,33.2,33.5l12.6-11.6c-2.9-3.5-6.5-7.3-10.5-11.3c9.2-11.9,18.7-28.6,24.5-43.9L831.5,134.5z"/>
	<path class="st0" d="M869.5,92.6h-23.1v85.3h16.8h53.1V92.6h-28.1c1.1-3.4,2.1-7.1,3.2-10.8h29.2V65.6H841v16.1h30.2
		C870.7,85.3,870.2,89,869.5,92.6z M898.6,163.9h-35.2v-10.5h35.2V163.9z M898.6,140.5h-35.2V130h35.2V140.5z M898.6,106.8v10h-35.2
		v-10H898.6z"/>
	<path class="st0" d="M791.1,115.8v8.9h36.9v-14.4c2.4,2.9,4.7,5.8,6.3,8.1l9.2-15.5c-5.3-7.3-16.3-18.2-26.1-27.4
		c1.1-2.7,2.4-5.6,3.5-8.2l-14.4-9c-7.7,20.6-22.8,40.2-36.3,51.5c3.7,4.7,8.2,11.8,10.5,17.1C784.4,123.4,787.8,119.7,791.1,115.8z
		 M809.5,89.8c6,6.1,11.9,12.6,16.9,18.5h-29.4C801.5,102.6,805.5,96.4,809.5,89.8z"/>
	<path class="st0" d="M832.1,197.9c3.9,3.4,9.2,9,12.1,12.4c11.8-4.7,25.8-13.9,34.4-22.1l-15.3-10.3
		C856.8,184.9,843.6,193.4,832.1,197.9z"/>
	<path class="st0" d="M898.4,179l-13.9,9.5c8.5,6.5,19.8,15.8,25,21.8l14.8-10.6C918.6,193.6,906.8,185,898.4,179z"/>
	<path class="st0" d="M995.4,109.7v49h41.5v-49H995.4z M1021.9,144h-12.4v-19.7h12.4V144z"/>
	<path class="st0" d="M1082.5,171.6c-0.5,14.4-1.8,20.3-4,20.3c-3.9,0-7.6-8.7-10.3-23.1c9.4-16.1,16.4-35,21.5-56.1l-17.1-3.4
		c-2.4,10.8-5.2,20.8-8.9,30.2c-1.4-12.3-2.4-26-3.1-40.6h31.3V81.5h-7.1l6.9-6.4c-3.7-4.7-11.5-11.1-17.8-15.6l-10.8,9.4
		c4.7,3.7,10,8.6,14,12.8h-17.1c-0.2-7.4-0.2-14.7,0-22.1h-18.2c0,7.4,0.2,14.7,0.3,22.1h-51.5v17.4h52.1c1,25,3.1,48.6,6.8,67.8
		c-2.1,3.1-4.4,6-6.8,8.9l-1.4-12.7c-20.3,4.5-41.5,9.4-55.5,11.9l4.5,17.9c13.9-3.5,31.9-8.4,49-12.9c-6.1,6.5-12.9,12.3-20.7,17.1
		c4,2.7,11.1,8.9,13.7,12.1c8.4-6,16-13.1,22.6-21.3c5,13.7,11.8,22.3,20.8,22.3c12.1,0,16.8-6.1,19.5-27.6
		C1091.4,180.2,1086.1,176.1,1082.5,171.6z"/>
	<path class="st0" d="M942.3,171.3l7.3,19.4c13.2-7.1,28.9-16,43.1-24.4l-5.5-16.9l-11,5.5V116h12.1V97.6h-12.1V61.4h-17.9v36.1
		h-14.5v18.2h14.5v48.2C952.3,166.8,946.8,169.4,942.3,171.3z"/>
	<path class="st0" d="M745,344.9l-11.9-5.2l-3.2,0.8h-67.3v17.9h15l-10.5,3.7c5.7,11.5,12.7,21.6,21.1,30
		c-8.9,5.2-18.9,8.9-29.7,11.5v-39.8h-49.4v55.7h16.3v-6.8h33.1v-5.8c2.9,4.5,5.8,10.3,7.4,14.4c13.9-3.7,26.5-9.2,37.4-16.3
		c10.8,7.1,23.2,12.4,37.4,15.8c2.6-5.2,7.7-13.4,11.8-17.3c-12.4-2.4-23.5-6.5-33.4-11.6C730.8,380.1,739.7,364.8,745,344.9z
		 M641.9,397.2h-16.5v-18.1h16.5V397.2z M703.4,381.4c-7.9-6.6-14.4-14.2-19-22.9h36.3C716.3,367.4,710.5,374.9,703.4,381.4z"/>
	<rect x="609" y="341.5" class="st0" width="49.7" height="14.5"/>
	<path class="st0" d="M602,312.7H665v-15.2h-30.7l10.8-5.8c-2.4-6-7.4-14.8-11.8-21.5l-15,6.9c3.7,6.1,7.9,14.2,10.3,20.3H602
		L602,312.7L602,312.7z"/>
	<path class="st0" d="M658.3,319.9H609v14.5h49.4v-7.9c3.7,3.2,8.7,8.9,10.5,11.9c20.2-10.8,24.7-28.9,24.7-44.5v-0.2h19.4V311
		c0,16,2.9,22.8,18.1,22.8h8.4c3.2,0,6.8-0.2,9-1.1c-0.5-4.5-1-11.1-1.3-16c-2.1,0.6-5.6,1.1-7.9,1.1h-6.5c-1.9,0-2.3-1.9-2.3-6.6
		V276h-54.4v17.3c0,10.5-1.9,21.6-17.8,30.3V319.9z"/>
	<path class="st0" d="M783.9,419.5H800v-6.8h37.6v-48.9h-53.7L783.9,419.5L783.9,419.5z M800,379.1h21v18.1h-21V379.1z"/>
	<polygon class="st0" points="891.6,273.8 871.6,273.8 871.6,324.4 843.4,324.4 843.4,343.3 871.6,343.3 871.6,421.6 891.6,421.6 
		891.6,343.3 921.5,343.3 921.5,324.4 891.6,324.4 	"/>
	<rect x="783.2" y="341.5" class="st0" width="53.7" height="14.5"/>
	<path class="st0" d="M844,297.5h-34l10.7-5.8c-2.4-6-7.4-14.8-11.8-21.5l-15,6.9c3.7,6.1,7.9,14.2,10.3,20.3h-28.1v15.2H844V297.5z
		"/>
	<rect x="783.2" y="319.9" class="st0" width="54" height="14.5"/>
	<path class="st0" d="M1054.9,371.5c8.7,12.6,16.9,29,19.7,39.8l18.7-7.9c-3.2-11.3-12.3-26.9-21.3-39L1054.9,371.5z"/>
	<path class="st0" d="M1035.1,401.2h-22.9c-8.1,0-9.5-0.6-9.5-5.5v-26.3h-19.4v26.5c0,17.1,5.3,22.8,26.6,22.8h26.8
		c16.8,0,22.4-5.8,24.5-28.7c-5.2-1.1-13.4-4.2-17.3-7.1C1043,398.8,1041.7,401.2,1035.1,401.2z"/>
	<path class="st0" d="M943.9,402.8l17.3,9.5c7.7-10.7,13.2-26.9,17.1-40.7l-17.4-6.3C957.5,378.7,951.4,393.2,943.9,402.8z"/>
	<path class="st0" d="M1075.6,277.7H960.1v76.5h50.5l-11.3,10.5c11.6,6.1,25.2,16.1,31.5,23.1l13.7-13.1c-6.6-6.8-19-15-29.9-20.5
		h61L1075.6,277.7L1075.6,277.7z M1008.5,337.5h-30.3v-14.2h30.3V337.5z M1008.5,307.8h-30.3v-13.5h30.3V307.8z M1056.5,337.5H1027
		v-14.2h29.5V337.5z M1056.5,307.8H1027v-13.5h29.5V307.8z"/>
	<path class="st0" d="M1260.8,332.2v-16.1h-34.7c10.7-9.4,20.3-19.5,28.6-30.2l-14.8-8.4c-5.2,6.5-10.7,12.7-16.8,18.7v-8.5h-32.4
		v-16.8h-18.9v16.8h-38.2v15.6h38.2V316H1120v16.1h56.9c-19.7,12.1-41,22.1-62.1,29.4c2.4,4.2,6.1,12.9,7.3,17.3
		c13.4-5.2,26.8-11.5,40-18.5c-4.2,9-9.2,18.4-13.4,25.7h69.2c-2.1,9.5-4.4,14.7-7.1,16.6c-2.1,1.5-4.5,1.6-8.2,1.6
		c-4.7,0-17.8-0.3-28.7-1.1c3.6,4.8,6.3,12.3,6.4,17.8c11.3,0.5,21.9,0.5,27.9,0c7.9-0.3,12.9-1.5,17.8-5.7
		c5.7-4.8,9.4-15.7,12.9-36.9c0.6-2.4,1.3-7.7,1.3-7.7h-63.2c1.9-3.9,3.7-7.9,5.5-11.9h62.3V344h-55.2c5.8-3.9,11.4-7.6,16.9-11.8
		L1260.8,332.2L1260.8,332.2z M1190.6,316v-12.7h24.8c-4.7,4.5-9.8,8.5-15.3,12.7H1190.6z"/>
</g>
</svg>
